<mxfile host="Electron" agent="Mozilla/5.0 (Windows NT 10.0; Win64; x64) AppleWebKit/537.36 (KHTML, like Gecko) draw.io/28.1.2 Chrome/138.0.7204.243 Electron/37.4.0 Safari/537.36" version="28.1.2">
  <diagram name="Page-1" id="CdkxmjYgeCRMkWTuVUf4">
    <mxGraphModel dx="1213" dy="727" grid="0" gridSize="10" guides="1" tooltips="1" connect="1" arrows="1" fold="1" page="1" pageScale="1" pageWidth="1169" pageHeight="827" math="0" shadow="0">
      <root>
        <mxCell id="0" />
        <mxCell id="1" parent="0" />
        <mxCell id="eLqcbsIIJh7kHSFu5TRq-1" value="&lt;font style=&quot;&quot;&gt;&lt;span style=&quot;font-weight: bold; font-size: 30px;&quot;&gt;Data Flow &lt;/span&gt;&lt;font style=&quot;font-size: 16px;&quot;&gt;(Data Lineage)&lt;/font&gt;&lt;/font&gt;" style="rounded=0;whiteSpace=wrap;html=1;fillColor=none;strokeColor=none;" parent="1" vertex="1">
          <mxGeometry x="40" y="40" width="350" height="50" as="geometry" />
        </mxCell>
        <mxCell id="yAWCUfIN0NA1F9ocFVg2-1" value="" style="rounded=0;whiteSpace=wrap;html=1;strokeColor=#333333;strokeWidth=1.5;fillColor=none;dashed=1;" parent="1" vertex="1">
          <mxGeometry x="80" y="161" width="160" height="440" as="geometry" />
        </mxCell>
        <mxCell id="yAWCUfIN0NA1F9ocFVg2-2" value="&lt;font style=&quot;font-size: 24px;&quot;&gt;&lt;b&gt;Source&lt;/b&gt;&lt;/font&gt;" style="rounded=1;whiteSpace=wrap;html=1;fillColor=default;strokeColor=none;" parent="1" vertex="1">
          <mxGeometry x="110" y="140" width="100" height="40" as="geometry" />
        </mxCell>
        <mxCell id="yAWCUfIN0NA1F9ocFVg2-4" value="&lt;font&gt;&lt;b&gt;ERP&lt;/b&gt;&lt;/font&gt;" style="image;aspect=fixed;html=1;points=[];align=center;fontSize=14;image=img/lib/azure2/general/Folder_Blank.svg;" parent="1" vertex="1">
          <mxGeometry x="120" y="447.54" width="80" height="64.93" as="geometry" />
        </mxCell>
        <mxCell id="yAWCUfIN0NA1F9ocFVg2-5" value="" style="rounded=1;whiteSpace=wrap;html=1;strokeColor=#d79b00;strokeWidth=1.5;fillColor=#ffe6cc;dashed=1;fillStyle=hatch;" parent="1" vertex="1">
          <mxGeometry x="320" y="190" width="200" height="410" as="geometry" />
        </mxCell>
        <mxCell id="yAWCUfIN0NA1F9ocFVg2-6" value="&lt;font style=&quot;font-size: 20px;&quot;&gt;&lt;b style=&quot;&quot;&gt;Bronze Layer&lt;/b&gt;&lt;/font&gt;" style="rounded=1;whiteSpace=wrap;html=1;fillColor=#ffe6cc;strokeColor=#d79b00;" parent="1" vertex="1">
          <mxGeometry x="320" y="140" width="200" height="40" as="geometry" />
        </mxCell>
        <mxCell id="yAWCUfIN0NA1F9ocFVg2-7" value="&lt;font&gt;&lt;span&gt;crm_sales_details&lt;/span&gt;&lt;/font&gt;" style="rounded=1;whiteSpace=wrap;html=1;fillColor=#ffe6cc;strokeColor=#d79b00;fontSize=14;fontStyle=0" parent="1" vertex="1">
          <mxGeometry x="330" y="230" width="180" height="40" as="geometry" />
        </mxCell>
        <mxCell id="yAWCUfIN0NA1F9ocFVg2-8" value="&lt;font&gt;&lt;span&gt;crm_cust_info&lt;/span&gt;&lt;/font&gt;" style="rounded=1;whiteSpace=wrap;html=1;fillColor=#ffe6cc;strokeColor=#d79b00;fontSize=14;fontStyle=0" parent="1" vertex="1">
          <mxGeometry x="330" y="280" width="180" height="40" as="geometry" />
        </mxCell>
        <mxCell id="yAWCUfIN0NA1F9ocFVg2-9" value="&lt;font&gt;&lt;span&gt;crm_prd_info&lt;/span&gt;&lt;/font&gt;" style="rounded=1;whiteSpace=wrap;html=1;fillColor=#ffe6cc;strokeColor=#d79b00;fontSize=14;fontStyle=0" parent="1" vertex="1">
          <mxGeometry x="330" y="330" width="180" height="40" as="geometry" />
        </mxCell>
        <mxCell id="yAWCUfIN0NA1F9ocFVg2-10" value="&lt;font&gt;&lt;span&gt;erp_cust_az12&lt;/span&gt;&lt;/font&gt;" style="rounded=1;whiteSpace=wrap;html=1;fillColor=#ffe6cc;strokeColor=#d79b00;fontSize=14;fontStyle=0" parent="1" vertex="1">
          <mxGeometry x="330" y="410" width="180" height="40" as="geometry" />
        </mxCell>
        <mxCell id="yAWCUfIN0NA1F9ocFVg2-11" value="&lt;font&gt;&lt;span&gt;erp_loc_a101&lt;/span&gt;&lt;/font&gt;" style="rounded=1;whiteSpace=wrap;html=1;fillColor=#ffe6cc;strokeColor=#d79b00;fontSize=14;fontStyle=0" parent="1" vertex="1">
          <mxGeometry x="330" y="460" width="180" height="40" as="geometry" />
        </mxCell>
        <mxCell id="yAWCUfIN0NA1F9ocFVg2-12" value="&lt;font&gt;&lt;span&gt;erp_px_cat_g1v2&lt;/span&gt;&lt;/font&gt;" style="rounded=1;whiteSpace=wrap;html=1;fillColor=#ffe6cc;strokeColor=#d79b00;fontSize=14;fontStyle=0" parent="1" vertex="1">
          <mxGeometry x="330" y="510" width="180" height="40" as="geometry" />
        </mxCell>
        <mxCell id="yAWCUfIN0NA1F9ocFVg2-24" style="edgeStyle=orthogonalEdgeStyle;rounded=0;orthogonalLoop=1;jettySize=auto;html=1;exitX=0.5;exitY=1;exitDx=0;exitDy=0;" parent="1" source="yAWCUfIN0NA1F9ocFVg2-2" target="yAWCUfIN0NA1F9ocFVg2-2" edge="1">
          <mxGeometry relative="1" as="geometry" />
        </mxCell>
        <mxCell id="yAWCUfIN0NA1F9ocFVg2-25" style="edgeStyle=orthogonalEdgeStyle;rounded=0;orthogonalLoop=1;jettySize=auto;html=1;entryX=0;entryY=0.5;entryDx=0;entryDy=0;" parent="1" target="yAWCUfIN0NA1F9ocFVg2-7" edge="1">
          <mxGeometry relative="1" as="geometry">
            <mxPoint x="200" y="300" as="sourcePoint" />
          </mxGeometry>
        </mxCell>
        <mxCell id="yAWCUfIN0NA1F9ocFVg2-26" style="edgeStyle=orthogonalEdgeStyle;rounded=0;orthogonalLoop=1;jettySize=auto;html=1;entryX=0;entryY=0.5;entryDx=0;entryDy=0;" parent="1" target="yAWCUfIN0NA1F9ocFVg2-8" edge="1">
          <mxGeometry relative="1" as="geometry">
            <mxPoint x="200" y="300" as="sourcePoint" />
          </mxGeometry>
        </mxCell>
        <mxCell id="yAWCUfIN0NA1F9ocFVg2-27" style="edgeStyle=orthogonalEdgeStyle;rounded=0;orthogonalLoop=1;jettySize=auto;html=1;entryX=0;entryY=0.5;entryDx=0;entryDy=0;" parent="1" target="yAWCUfIN0NA1F9ocFVg2-9" edge="1">
          <mxGeometry relative="1" as="geometry">
            <mxPoint x="200" y="300" as="sourcePoint" />
          </mxGeometry>
        </mxCell>
        <mxCell id="yAWCUfIN0NA1F9ocFVg2-30" style="edgeStyle=orthogonalEdgeStyle;rounded=0;orthogonalLoop=1;jettySize=auto;html=1;entryX=0;entryY=0.5;entryDx=0;entryDy=0;" parent="1" source="yAWCUfIN0NA1F9ocFVg2-4" target="yAWCUfIN0NA1F9ocFVg2-12" edge="1">
          <mxGeometry relative="1" as="geometry" />
        </mxCell>
        <mxCell id="yAWCUfIN0NA1F9ocFVg2-29" style="edgeStyle=orthogonalEdgeStyle;rounded=0;orthogonalLoop=1;jettySize=auto;html=1;entryX=0;entryY=0.5;entryDx=0;entryDy=0;" parent="1" source="yAWCUfIN0NA1F9ocFVg2-4" target="yAWCUfIN0NA1F9ocFVg2-11" edge="1">
          <mxGeometry relative="1" as="geometry" />
        </mxCell>
        <mxCell id="yAWCUfIN0NA1F9ocFVg2-28" style="edgeStyle=orthogonalEdgeStyle;rounded=0;orthogonalLoop=1;jettySize=auto;html=1;" parent="1" source="yAWCUfIN0NA1F9ocFVg2-4" target="yAWCUfIN0NA1F9ocFVg2-10" edge="1">
          <mxGeometry relative="1" as="geometry" />
        </mxCell>
        <mxCell id="92J3Kx2ti_8UkJIOiUgW-1" value="" style="rounded=1;whiteSpace=wrap;html=1;strokeColor=#666666;strokeWidth=1.5;fillColor=#f5f5f5;dashed=1;fillStyle=hatch;fontColor=#333333;" parent="1" vertex="1">
          <mxGeometry x="600" y="190" width="200" height="410" as="geometry" />
        </mxCell>
        <mxCell id="92J3Kx2ti_8UkJIOiUgW-2" value="&lt;font style=&quot;font-size: 20px;&quot;&gt;&lt;b style=&quot;&quot;&gt;Silver Layer&lt;/b&gt;&lt;/font&gt;" style="rounded=1;whiteSpace=wrap;html=1;fillColor=#f5f5f5;strokeColor=#666666;fontColor=#333333;" parent="1" vertex="1">
          <mxGeometry x="600" y="140" width="200" height="40" as="geometry" />
        </mxCell>
        <mxCell id="92J3Kx2ti_8UkJIOiUgW-3" value="&lt;font&gt;&lt;span&gt;crm_sales_details&lt;/span&gt;&lt;/font&gt;" style="rounded=1;whiteSpace=wrap;html=1;fillColor=#f5f5f5;strokeColor=#666666;fontSize=14;fontStyle=0;fontColor=#333333;" parent="1" vertex="1">
          <mxGeometry x="610" y="230" width="180" height="40" as="geometry" />
        </mxCell>
        <mxCell id="92J3Kx2ti_8UkJIOiUgW-4" value="&lt;font&gt;&lt;span&gt;crm_cust_info&lt;/span&gt;&lt;/font&gt;" style="rounded=1;whiteSpace=wrap;html=1;fillColor=#f5f5f5;strokeColor=#666666;fontSize=14;fontStyle=0;fontColor=#333333;" parent="1" vertex="1">
          <mxGeometry x="610" y="280" width="180" height="40" as="geometry" />
        </mxCell>
        <mxCell id="92J3Kx2ti_8UkJIOiUgW-5" value="&lt;font&gt;&lt;span&gt;crm_prd_info&lt;/span&gt;&lt;/font&gt;" style="rounded=1;whiteSpace=wrap;html=1;fillColor=#f5f5f5;strokeColor=#666666;fontSize=14;fontStyle=0;fontColor=#333333;" parent="1" vertex="1">
          <mxGeometry x="610" y="330" width="180" height="40" as="geometry" />
        </mxCell>
        <mxCell id="92J3Kx2ti_8UkJIOiUgW-6" value="&lt;font&gt;&lt;span&gt;erp_cust_az12&lt;/span&gt;&lt;/font&gt;" style="rounded=1;whiteSpace=wrap;html=1;fillColor=#f5f5f5;strokeColor=#666666;fontSize=14;fontStyle=0;fontColor=#333333;" parent="1" vertex="1">
          <mxGeometry x="610" y="410" width="180" height="40" as="geometry" />
        </mxCell>
        <mxCell id="92J3Kx2ti_8UkJIOiUgW-7" value="&lt;font&gt;&lt;span&gt;erp_loc_a101&lt;/span&gt;&lt;/font&gt;" style="rounded=1;whiteSpace=wrap;html=1;fillColor=#f5f5f5;strokeColor=#666666;fontSize=14;fontStyle=0;fontColor=#333333;" parent="1" vertex="1">
          <mxGeometry x="610" y="460" width="180" height="40" as="geometry" />
        </mxCell>
        <mxCell id="92J3Kx2ti_8UkJIOiUgW-8" value="&lt;font&gt;&lt;span&gt;erp_px_cat_g1v2&lt;/span&gt;&lt;/font&gt;" style="rounded=1;whiteSpace=wrap;html=1;fillColor=#f5f5f5;strokeColor=#666666;fontSize=14;fontStyle=0;fontColor=#333333;" parent="1" vertex="1">
          <mxGeometry x="610" y="510" width="180" height="40" as="geometry" />
        </mxCell>
        <mxCell id="92J3Kx2ti_8UkJIOiUgW-13" style="edgeStyle=orthogonalEdgeStyle;rounded=0;orthogonalLoop=1;jettySize=auto;html=1;entryX=0.05;entryY=0.707;entryDx=0;entryDy=0;entryPerimeter=0;" parent="1" source="yAWCUfIN0NA1F9ocFVg2-11" target="92J3Kx2ti_8UkJIOiUgW-1" edge="1">
          <mxGeometry relative="1" as="geometry" />
        </mxCell>
        <mxCell id="92J3Kx2ti_8UkJIOiUgW-9" style="edgeStyle=orthogonalEdgeStyle;rounded=0;orthogonalLoop=1;jettySize=auto;html=1;entryX=0;entryY=0.5;entryDx=0;entryDy=0;" parent="1" source="yAWCUfIN0NA1F9ocFVg2-7" target="92J3Kx2ti_8UkJIOiUgW-3" edge="1">
          <mxGeometry relative="1" as="geometry" />
        </mxCell>
        <mxCell id="92J3Kx2ti_8UkJIOiUgW-10" style="edgeStyle=orthogonalEdgeStyle;rounded=0;orthogonalLoop=1;jettySize=auto;html=1;" parent="1" source="yAWCUfIN0NA1F9ocFVg2-8" target="92J3Kx2ti_8UkJIOiUgW-4" edge="1">
          <mxGeometry relative="1" as="geometry" />
        </mxCell>
        <mxCell id="92J3Kx2ti_8UkJIOiUgW-11" style="edgeStyle=orthogonalEdgeStyle;rounded=0;orthogonalLoop=1;jettySize=auto;html=1;entryX=0;entryY=0.5;entryDx=0;entryDy=0;" parent="1" source="yAWCUfIN0NA1F9ocFVg2-9" target="92J3Kx2ti_8UkJIOiUgW-5" edge="1">
          <mxGeometry relative="1" as="geometry" />
        </mxCell>
        <mxCell id="92J3Kx2ti_8UkJIOiUgW-12" style="edgeStyle=orthogonalEdgeStyle;rounded=0;orthogonalLoop=1;jettySize=auto;html=1;" parent="1" source="yAWCUfIN0NA1F9ocFVg2-10" target="92J3Kx2ti_8UkJIOiUgW-6" edge="1">
          <mxGeometry relative="1" as="geometry" />
        </mxCell>
        <mxCell id="92J3Kx2ti_8UkJIOiUgW-14" style="edgeStyle=orthogonalEdgeStyle;rounded=0;orthogonalLoop=1;jettySize=auto;html=1;" parent="1" source="yAWCUfIN0NA1F9ocFVg2-12" target="92J3Kx2ti_8UkJIOiUgW-8" edge="1">
          <mxGeometry relative="1" as="geometry" />
        </mxCell>
        <mxCell id="92J3Kx2ti_8UkJIOiUgW-15" value="" style="rounded=1;whiteSpace=wrap;html=1;strokeColor=#d6b656;strokeWidth=1.5;fillColor=#fff2cc;dashed=1;fillStyle=hatch;" parent="1" vertex="1">
          <mxGeometry x="880" y="190" width="200" height="410" as="geometry" />
        </mxCell>
        <mxCell id="92J3Kx2ti_8UkJIOiUgW-16" value="&lt;font style=&quot;font-size: 20px;&quot;&gt;&lt;b style=&quot;&quot;&gt;Gold Layer&lt;/b&gt;&lt;/font&gt;" style="rounded=1;whiteSpace=wrap;html=1;fillColor=#fff2cc;strokeColor=#d6b656;" parent="1" vertex="1">
          <mxGeometry x="880" y="140" width="200" height="40" as="geometry" />
        </mxCell>
        <mxCell id="92J3Kx2ti_8UkJIOiUgW-17" value="&lt;font&gt;&lt;span&gt;fact_sales&lt;/span&gt;&lt;/font&gt;" style="rounded=1;whiteSpace=wrap;html=1;fillColor=#fff2cc;strokeColor=#d6b656;fontSize=14;fontStyle=0;" parent="1" vertex="1">
          <mxGeometry x="890" y="276" width="180" height="40" as="geometry" />
        </mxCell>
        <mxCell id="92J3Kx2ti_8UkJIOiUgW-18" value="&lt;font&gt;&lt;span&gt;dim_customers&lt;/span&gt;&lt;/font&gt;" style="rounded=1;whiteSpace=wrap;html=1;fillColor=#fff2cc;strokeColor=#d6b656;fontSize=14;fontStyle=0;" parent="1" vertex="1">
          <mxGeometry x="890" y="356" width="180" height="40" as="geometry" />
        </mxCell>
        <mxCell id="92J3Kx2ti_8UkJIOiUgW-19" value="&lt;font&gt;&lt;span&gt;dim_prodcuts&lt;/span&gt;&lt;/font&gt;" style="rounded=1;whiteSpace=wrap;html=1;fillColor=#fff2cc;strokeColor=#d6b656;fontSize=14;fontStyle=0;" parent="1" vertex="1">
          <mxGeometry x="890" y="446" width="180" height="40" as="geometry" />
        </mxCell>
        <mxCell id="92J3Kx2ti_8UkJIOiUgW-24" value="" style="endArrow=classic;html=1;rounded=0;entryX=0;entryY=0.5;entryDx=0;entryDy=0;" parent="1" target="92J3Kx2ti_8UkJIOiUgW-17" edge="1">
          <mxGeometry width="50" height="50" relative="1" as="geometry">
            <mxPoint x="790" y="250" as="sourcePoint" />
            <mxPoint x="840" y="200" as="targetPoint" />
          </mxGeometry>
        </mxCell>
        <mxCell id="92J3Kx2ti_8UkJIOiUgW-25" value="" style="endArrow=classic;html=1;rounded=0;entryX=0;entryY=0.5;entryDx=0;entryDy=0;jumpStyle=gap;" parent="1" edge="1">
          <mxGeometry width="50" height="50" relative="1" as="geometry">
            <mxPoint x="790" y="300" as="sourcePoint" />
            <mxPoint x="890" y="381" as="targetPoint" />
          </mxGeometry>
        </mxCell>
        <mxCell id="92J3Kx2ti_8UkJIOiUgW-26" value="" style="endArrow=classic;html=1;rounded=0;entryX=0;entryY=0.5;entryDx=0;entryDy=0;exitX=1;exitY=0.5;exitDx=0;exitDy=0;jumpStyle=gap;" parent="1" source="92J3Kx2ti_8UkJIOiUgW-6" target="92J3Kx2ti_8UkJIOiUgW-18" edge="1">
          <mxGeometry width="50" height="50" relative="1" as="geometry">
            <mxPoint x="830" y="420" as="sourcePoint" />
            <mxPoint x="930" y="501" as="targetPoint" />
          </mxGeometry>
        </mxCell>
        <mxCell id="92J3Kx2ti_8UkJIOiUgW-27" value="" style="endArrow=classic;html=1;rounded=0;entryX=0;entryY=0.5;entryDx=0;entryDy=0;exitX=1;exitY=0.5;exitDx=0;exitDy=0;jumpStyle=gap;" parent="1" source="92J3Kx2ti_8UkJIOiUgW-7" target="92J3Kx2ti_8UkJIOiUgW-18" edge="1">
          <mxGeometry width="50" height="50" relative="1" as="geometry">
            <mxPoint x="830" y="460" as="sourcePoint" />
            <mxPoint x="930" y="541" as="targetPoint" />
          </mxGeometry>
        </mxCell>
        <mxCell id="92J3Kx2ti_8UkJIOiUgW-28" value="" style="endArrow=classic;html=1;rounded=0;entryX=0;entryY=0.5;entryDx=0;entryDy=0;jumpStyle=gap;" parent="1" target="92J3Kx2ti_8UkJIOiUgW-19" edge="1">
          <mxGeometry width="50" height="50" relative="1" as="geometry">
            <mxPoint x="790" y="351" as="sourcePoint" />
            <mxPoint x="860" y="450" as="targetPoint" />
          </mxGeometry>
        </mxCell>
        <mxCell id="92J3Kx2ti_8UkJIOiUgW-29" value="" style="endArrow=classic;html=1;rounded=0;entryX=0;entryY=0.5;entryDx=0;entryDy=0;exitX=1;exitY=0.5;exitDx=0;exitDy=0;jumpStyle=gap;" parent="1" source="92J3Kx2ti_8UkJIOiUgW-8" target="92J3Kx2ti_8UkJIOiUgW-19" edge="1">
          <mxGeometry width="50" height="50" relative="1" as="geometry">
            <mxPoint x="810" y="480" as="sourcePoint" />
            <mxPoint x="910" y="561" as="targetPoint" />
          </mxGeometry>
        </mxCell>
        <mxCell id="7VOQlOgPPWi1neVbpIUN-2" value="" style="image;aspect=fixed;html=1;points=[];align=center;fontSize=12;image=img/lib/azure2/general/File.svg;" vertex="1" parent="1">
          <mxGeometry x="177.54" y="486" width="32.46" height="40" as="geometry" />
        </mxCell>
        <mxCell id="7VOQlOgPPWi1neVbpIUN-3" value="&lt;font&gt;&lt;b&gt;CRM&lt;/b&gt;&lt;/font&gt;" style="image;aspect=fixed;html=1;points=[];align=center;fontSize=14;image=img/lib/azure2/general/Folder_Blank.svg;" vertex="1" parent="1">
          <mxGeometry x="120" y="270" width="80" height="64.93" as="geometry" />
        </mxCell>
        <mxCell id="7VOQlOgPPWi1neVbpIUN-4" value="" style="image;aspect=fixed;html=1;points=[];align=center;fontSize=12;image=img/lib/azure2/general/File.svg;" vertex="1" parent="1">
          <mxGeometry x="177.53999999999996" y="308.46" width="32.46" height="40" as="geometry" />
        </mxCell>
      </root>
    </mxGraphModel>
  </diagram>
</mxfile>
